<svg width="117" height="26" viewBox="0 0 117 26" fill="none" xmlns="http://www.w3.org/2000/svg">
<path d="M117 1.63026C117 2.4573 116.326 3.13372 115.499 3.13372C114.672 3.13372 114.005 2.4573 114.005 1.63026C114.005 0.803229 114.68 0.126814 115.499 0.126814C116.318 0.126814 117 0.803229 117 1.63026ZM116.795 1.63026C116.795 0.91277 116.214 0.323988 115.501 0.323988C114.789 0.323988 114.21 0.91277 114.21 1.63026C114.21 2.34776 114.789 2.93654 115.501 2.93654C116.214 2.93654 116.795 2.34776 116.795 1.63026ZM115.772 1.75898L116.225 2.4573H115.875L115.469 1.79458H115.237V2.4573H114.95V0.795015H115.575C115.854 0.795015 116.086 1.01136 116.086 1.29069C116.086 1.52072 115.965 1.69051 115.774 1.75898H115.772ZM115.237 1.54263H115.545C115.687 1.54263 115.796 1.43857 115.796 1.30438C115.796 1.17019 115.687 1.07161 115.545 1.07161H115.237V1.54263ZM60.8435 5.00687H63.0955V18.5598H60.8435V5.00687ZM52.5969 4.70289C51.0983 4.70289 49.7279 5.2369 48.6551 6.12419V5.00687H46.4031V18.5598H48.6551V10.9166C48.6551 8.73126 50.4186 6.96217 52.5969 6.96217C54.7752 6.96217 56.5387 8.73126 56.5387 10.9166V18.5598H58.7907V10.9193C58.7907 7.48797 56.0173 4.70563 52.5969 4.70563V4.70289ZM41.9017 5.00687H44.1538V18.0477C44.1538 21.9556 40.7525 25.1213 37.1028 25.1213C33.7398 25.1213 31.2693 23.062 30.3876 20.2194H32.8062C33.5541 21.7858 35.0146 22.8621 37.1001 22.8621C39.5023 22.8621 41.899 20.7068 41.899 18.0477V16.9578C40.6406 18.1326 38.9536 18.8474 37.1001 18.8474C33.2075 18.8474 30.0491 15.6816 30.0491 11.7738C30.0491 7.86589 33.2047 4.70015 37.1001 4.70015C38.9536 4.70015 40.6406 5.41765 41.899 6.58973V4.99865L41.9017 5.00687ZM41.9017 11.7792C41.9017 9.12013 39.7534 6.96491 37.1028 6.96491C34.4522 6.96491 32.3039 9.12013 32.3039 11.7792C32.3039 14.4383 34.4522 16.5936 37.1028 16.5936C39.7534 16.5936 41.9017 14.4383 41.9017 11.7792ZM7.05095 6.96491C8.97543 6.96491 10.6351 8.1014 11.3995 9.74178H13.8016C12.9281 6.83073 10.2366 4.70563 7.05095 4.70563C3.15559 4.70563 0 7.87136 0 11.7792C0 15.6871 3.15559 18.8529 7.05095 18.8529C10.2366 18.8529 12.9308 16.7305 13.8016 13.8167H11.3995C10.6351 15.4571 8.9727 16.5936 7.05095 16.5936C4.40036 16.5936 2.25205 14.4383 2.25205 11.7792C2.25205 9.12013 4.40036 6.96491 7.05095 6.96491ZM28.9682 11.7792C28.9682 15.6871 25.8126 18.8529 21.9172 18.8529C18.0218 18.8529 14.8662 15.6871 14.8662 11.7792C14.8662 7.87136 18.0218 4.70563 21.9172 4.70563C25.8126 4.70563 28.9682 7.87136 28.9682 11.7792ZM26.7161 11.7792C26.7161 9.12013 24.5678 6.96491 21.9172 6.96491C19.2666 6.96491 17.1183 9.12013 17.1183 11.7792C17.1183 14.4383 19.2666 16.5936 21.9172 16.5936C24.5678 16.5936 26.7161 14.4383 26.7161 11.7792ZM100.379 4.70563C98.8799 4.70563 97.5095 5.23964 96.4368 6.12693V5.01235H94.1847V18.5626H96.4368V10.9193C96.4368 8.734 98.2002 6.96491 100.379 6.96491C102.557 6.96491 104.32 8.734 104.32 10.9193V18.5626H106.572V10.9221C106.572 7.49071 103.799 4.70837 100.379 4.70837V4.70563ZM89.6833 5.01508H91.9354V18.5653H89.6833V16.9633C88.4249 18.1354 86.7379 18.8529 84.8844 18.8529C80.9891 18.8529 77.8335 15.6871 77.8335 11.7792C77.8335 7.87136 80.9891 4.70563 84.8844 4.70563C86.7379 4.70563 88.4249 5.42586 89.6833 6.59795V5.01235V5.01508ZM89.6833 11.782C89.6833 9.12287 87.535 6.96765 84.8844 6.96765C82.2338 6.96765 80.0855 9.12287 80.0855 11.782C80.0855 14.4411 82.2338 16.5963 84.8844 16.5963C87.535 16.5963 89.6833 14.4411 89.6833 11.782ZM114.104 7.26889V5.00961H110.727V1.3126H108.475V14.044C108.475 16.5388 110.49 18.5598 112.976 18.5598H114.104V16.3005H112.979C111.737 16.3005 110.727 15.29 110.727 14.044V7.26889H114.104ZM61.9736 0.121338C61.1492 0.121338 60.4804 0.792276 60.4804 1.62205C60.4804 2.45182 61.1492 3.12002 61.9736 3.12002C62.798 3.12002 63.4695 2.44908 63.4695 1.62205C63.4695 0.795014 62.8007 0.121338 61.9736 0.121338ZM76.6297 5.01235H65.3694V7.27163H73.7088L65.3694 16.306V18.5653H76.6297V16.306H68.2848L76.6242 7.27163L76.6297 5.01235Z" fill="white"/>
</svg>
