<svg width="30" height="33" viewBox="0 0 30 33" fill="none" xmlns="http://www.w3.org/2000/svg">
<path fill-rule="evenodd" clip-rule="evenodd" d="M19.6154 6.95613e-07H13.3748C10.5474 -3.00021e-05 8.30799 -4.54458e-05 6.55536 0.235053C4.75163 0.476981 3.29171 0.986747 2.14037 2.13539C0.989047 3.28405 0.478093 4.74058 0.235601 6.54011C-4.53683e-05 8.28866 -3.00721e-05 10.5229 6.97164e-07 13.3436V22.6395C6.97164e-07 25.5131 2.11085 27.895 4.87002 28.3258C5.08228 29.4985 5.48851 30.4994 6.30515 31.3142C7.23119 32.2381 8.39714 32.6355 9.78192 32.8212C11.1157 33 12.8115 33 14.9155 33H19.6998C21.8038 33 23.4997 33 24.8335 32.8212C26.2183 32.6355 27.3842 32.2381 28.3103 31.3142C29.2363 30.3902 29.6346 29.2271 29.8208 27.8456C30 26.5148 30 24.8229 30 22.7238V14.8809C30 12.7818 30 11.0899 29.8208 9.75918C29.6346 8.37761 29.2363 7.21437 28.3103 6.29049C27.4935 5.47574 26.4903 5.07046 25.3149 4.85869C24.8831 2.10594 22.4957 6.95613e-07 19.6154 6.95613e-07ZM22.8912 4.63715C22.4254 3.27887 21.1348 2.30233 19.6154 2.30233H13.4615C10.528 2.30233 8.44386 2.30477 6.86285 2.51684C5.31502 2.72445 4.42325 3.1138 3.77215 3.76338C3.12106 4.41296 2.7308 5.30266 2.52271 6.84689C2.31014 8.42422 2.30769 10.5035 2.30769 13.4302V22.6395C2.30769 24.1554 3.28652 25.443 4.64795 25.9078C4.61536 24.9716 4.61537 23.913 4.61539 22.7238V14.8809C4.61535 12.7818 4.61532 11.0899 4.79465 9.75918C4.98083 8.37761 5.37912 7.21437 6.30515 6.29049C7.23119 5.36661 8.39714 4.96925 9.78192 4.7835C11.1157 4.60459 12.8115 4.60462 14.9155 4.60465H19.6998C20.8918 4.60464 21.9529 4.60462 22.8912 4.63715ZM7.93694 7.91848C8.36272 7.49369 8.96054 7.21672 10.0894 7.0653C11.2515 6.90942 12.7917 6.90698 15 6.90698H19.6154C21.8237 6.90698 23.3638 6.90942 24.526 7.0653C25.6549 7.21672 26.2526 7.49369 26.6785 7.91848C27.1043 8.34328 27.3818 8.9397 27.5337 10.066C27.6898 11.2253 27.6923 12.7619 27.6923 14.9651V22.6395C27.6923 24.8427 27.6898 26.3793 27.5337 27.5387C27.3818 28.665 27.1043 29.2613 26.6785 29.6862C26.2526 30.111 25.6549 30.3879 24.526 30.5394C23.3638 30.6952 21.8237 30.6977 19.6154 30.6977H15C12.7917 30.6977 11.2515 30.6952 10.0894 30.5394C8.96054 30.3879 8.36272 30.111 7.93694 29.6862C7.51115 29.2613 7.23354 28.665 7.08177 27.5387C6.92552 26.3793 6.92308 24.8427 6.92308 22.6395V14.9651C6.92308 12.7619 6.92552 11.2253 7.08177 10.066C7.23354 8.9397 7.51115 8.34328 7.93694 7.91848Z" fill="#000048"/>
</svg>
