<svg width="226" height="50" viewBox="0 0 226 50" fill="none" xmlns="http://www.w3.org/2000/svg">
<rect width="226" height="50" rx="5" fill="#000048"/>
<path d="M23.5762 31H20.5391L20.5586 29.0566H23.5762C24.4551 29.0566 25.1908 28.8646 25.7832 28.4805C26.3822 28.0964 26.8314 27.5462 27.1309 26.8301C27.4368 26.1139 27.5898 25.2611 27.5898 24.2715V23.5C27.5898 22.7318 27.502 22.0514 27.3262 21.459C27.1569 20.8665 26.903 20.3685 26.5645 19.9648C26.2324 19.5612 25.8223 19.2552 25.334 19.0469C24.8522 18.8385 24.2956 18.7344 23.6641 18.7344H20.4805V16.7812H23.6641C24.6081 16.7812 25.4707 16.9408 26.252 17.2598C27.0332 17.5723 27.707 18.0247 28.2734 18.6172C28.8464 19.2096 29.2858 19.9193 29.5918 20.7461C29.8978 21.5729 30.0508 22.4974 30.0508 23.5195V24.2715C30.0508 25.2936 29.8978 26.2181 29.5918 27.0449C29.2858 27.8717 28.8464 28.5814 28.2734 29.1738C27.7005 29.7598 27.0169 30.2122 26.2227 30.5312C25.4349 30.8438 24.5527 31 23.5762 31ZM21.8965 16.7812V31H19.4453V16.7812H21.8965ZM31.8281 25.834V25.6094C31.8281 24.8477 31.9388 24.1413 32.1602 23.4902C32.3815 22.8327 32.7005 22.263 33.1172 21.7812C33.5404 21.293 34.0547 20.9154 34.6602 20.6484C35.2721 20.375 35.9622 20.2383 36.7305 20.2383C37.5052 20.2383 38.1953 20.375 38.8008 20.6484C39.4128 20.9154 39.9303 21.293 40.3535 21.7812C40.7767 22.263 41.099 22.8327 41.3203 23.4902C41.5417 24.1413 41.6523 24.8477 41.6523 25.6094V25.834C41.6523 26.5957 41.5417 27.3021 41.3203 27.9531C41.099 28.6042 40.7767 29.1738 40.3535 29.6621C39.9303 30.1439 39.416 30.5215 38.8105 30.7949C38.2051 31.0618 37.5182 31.1953 36.75 31.1953C35.9753 31.1953 35.2819 31.0618 34.6699 30.7949C34.0645 30.5215 33.5501 30.1439 33.127 29.6621C32.7038 29.1738 32.3815 28.6042 32.1602 27.9531C31.9388 27.3021 31.8281 26.5957 31.8281 25.834ZM34.1816 25.6094V25.834C34.1816 26.3092 34.2305 26.7585 34.3281 27.1816C34.4258 27.6048 34.5788 27.9759 34.7871 28.2949C34.9954 28.6139 35.2624 28.8646 35.5879 29.0469C35.9134 29.2292 36.3008 29.3203 36.75 29.3203C37.1862 29.3203 37.5638 29.2292 37.8828 29.0469C38.2083 28.8646 38.4753 28.6139 38.6836 28.2949C38.8919 27.9759 39.0449 27.6048 39.1426 27.1816C39.2467 26.7585 39.2988 26.3092 39.2988 25.834V25.6094C39.2988 25.1406 39.2467 24.6979 39.1426 24.2812C39.0449 23.8581 38.8887 23.4837 38.6738 23.1582C38.4655 22.8327 38.1986 22.5788 37.873 22.3965C37.554 22.2077 37.1732 22.1133 36.7305 22.1133C36.2878 22.1133 35.9036 22.2077 35.5781 22.3965C35.2591 22.5788 34.9954 22.8327 34.7871 23.1582C34.5788 23.4837 34.4258 23.8581 34.3281 24.2812C34.2305 24.6979 34.1816 25.1406 34.1816 25.6094ZM46.4961 28.6562L48.9375 20.4336H50.4414L50.0312 22.8945L47.5703 31H46.2227L46.4961 28.6562ZM45.0605 20.4336L46.9648 28.6953L47.1211 31H45.6172L42.7559 20.4336H45.0605ZM52.7266 28.5977L54.5723 20.4336H56.8672L54.0156 31H52.5117L52.7266 28.5977ZM50.6953 20.4336L53.1074 28.5586L53.4102 31H52.0625L49.5723 22.8848L49.1621 20.4336H50.6953ZM60.8027 22.6895V31H58.4492V20.4336H60.666L60.8027 22.6895ZM60.3828 25.3262L59.6211 25.3164C59.6276 24.5677 59.7318 23.8809 59.9336 23.2559C60.1419 22.6309 60.4284 22.0938 60.793 21.6445C61.1641 21.1953 61.6068 20.8503 62.1211 20.6094C62.6354 20.362 63.2083 20.2383 63.8398 20.2383C64.3477 20.2383 64.8066 20.3099 65.2168 20.4531C65.6335 20.5898 65.9883 20.8145 66.2812 21.127C66.5807 21.4395 66.8086 21.8464 66.9648 22.3477C67.1211 22.8424 67.1992 23.4512 67.1992 24.1738V31H64.8359V24.1641C64.8359 23.6562 64.7611 23.2559 64.6113 22.9629C64.4681 22.6634 64.2565 22.4518 63.9766 22.3281C63.7031 22.1979 63.3613 22.1328 62.9512 22.1328C62.5475 22.1328 62.1862 22.2174 61.8672 22.3867C61.5482 22.556 61.278 22.7871 61.0566 23.0801C60.8418 23.373 60.6758 23.7116 60.5586 24.0957C60.4414 24.4798 60.3828 24.89 60.3828 25.3262ZM72.1211 16V31H69.7578V16H72.1211ZM74.25 25.834V25.6094C74.25 24.8477 74.3607 24.1413 74.582 23.4902C74.8034 22.8327 75.1224 22.263 75.5391 21.7812C75.9622 21.293 76.4766 20.9154 77.082 20.6484C77.694 20.375 78.3841 20.2383 79.1523 20.2383C79.9271 20.2383 80.6172 20.375 81.2227 20.6484C81.8346 20.9154 82.3522 21.293 82.7754 21.7812C83.1986 22.263 83.5208 22.8327 83.7422 23.4902C83.9635 24.1413 84.0742 24.8477 84.0742 25.6094V25.834C84.0742 26.5957 83.9635 27.3021 83.7422 27.9531C83.5208 28.6042 83.1986 29.1738 82.7754 29.6621C82.3522 30.1439 81.8379 30.5215 81.2324 30.7949C80.627 31.0618 79.9401 31.1953 79.1719 31.1953C78.3971 31.1953 77.7038 31.0618 77.0918 30.7949C76.4863 30.5215 75.972 30.1439 75.5488 29.6621C75.1257 29.1738 74.8034 28.6042 74.582 27.9531C74.3607 27.3021 74.25 26.5957 74.25 25.834ZM76.6035 25.6094V25.834C76.6035 26.3092 76.6523 26.7585 76.75 27.1816C76.8477 27.6048 77.0007 27.9759 77.209 28.2949C77.4173 28.6139 77.6842 28.8646 78.0098 29.0469C78.3353 29.2292 78.7227 29.3203 79.1719 29.3203C79.6081 29.3203 79.9857 29.2292 80.3047 29.0469C80.6302 28.8646 80.8971 28.6139 81.1055 28.2949C81.3138 27.9759 81.4668 27.6048 81.5645 27.1816C81.6686 26.7585 81.7207 26.3092 81.7207 25.834V25.6094C81.7207 25.1406 81.6686 24.6979 81.5645 24.2812C81.4668 23.8581 81.3105 23.4837 81.0957 23.1582C80.8874 22.8327 80.6204 22.5788 80.2949 22.3965C79.9759 22.2077 79.5951 22.1133 79.1523 22.1133C78.7096 22.1133 78.3255 22.2077 78 22.3965C77.681 22.5788 77.4173 22.8327 77.209 23.1582C77.0007 23.4837 76.8477 23.8581 76.75 24.2812C76.6523 24.6979 76.6035 25.1406 76.6035 25.6094ZM92.0039 28.8809V23.8418C92.0039 23.4642 91.9355 23.1387 91.7988 22.8652C91.6621 22.5918 91.4538 22.3802 91.1738 22.2305C90.9004 22.0807 90.5553 22.0059 90.1387 22.0059C89.7546 22.0059 89.4225 22.071 89.1426 22.2012C88.8626 22.3314 88.6445 22.5072 88.4883 22.7285C88.332 22.9499 88.2539 23.2005 88.2539 23.4805H85.9102C85.9102 23.0638 86.0111 22.6602 86.2129 22.2695C86.4147 21.8789 86.7077 21.5306 87.0918 21.2246C87.4759 20.9186 87.9349 20.6777 88.4688 20.502C89.0026 20.3262 89.6016 20.2383 90.2656 20.2383C91.0599 20.2383 91.763 20.3717 92.375 20.6387C92.9935 20.9056 93.4785 21.3092 93.8301 21.8496C94.1882 22.3835 94.3672 23.054 94.3672 23.8613V28.5586C94.3672 29.0404 94.3997 29.4733 94.4648 29.8574C94.5365 30.235 94.6374 30.5638 94.7676 30.8438V31H92.3555C92.2448 30.7461 92.1569 30.4238 92.0918 30.0332C92.0332 29.6361 92.0039 29.252 92.0039 28.8809ZM92.3457 24.5742L92.3652 26.0293H90.6758C90.2396 26.0293 89.8555 26.0716 89.5234 26.1562C89.1914 26.2344 88.9147 26.3516 88.6934 26.5078C88.472 26.6641 88.306 26.8529 88.1953 27.0742C88.0846 27.2956 88.0293 27.5462 88.0293 27.8262C88.0293 28.1061 88.0944 28.3633 88.2246 28.5977C88.3548 28.8255 88.5436 29.0046 88.791 29.1348C89.0449 29.265 89.3509 29.3301 89.709 29.3301C90.1908 29.3301 90.6107 29.2324 90.9688 29.0371C91.3333 28.8353 91.6198 28.5911 91.8281 28.3047C92.0365 28.0117 92.1471 27.735 92.1602 27.4746L92.9219 28.5195C92.8438 28.7865 92.7103 29.0729 92.5215 29.3789C92.3327 29.6849 92.0853 29.9779 91.7793 30.2578C91.4798 30.5312 91.1185 30.7559 90.6953 30.9316C90.2786 31.1074 89.7969 31.1953 89.25 31.1953C88.5599 31.1953 87.9447 31.0586 87.4043 30.7852C86.8639 30.5052 86.4408 30.1309 86.1348 29.6621C85.8288 29.1868 85.6758 28.6497 85.6758 28.0508C85.6758 27.4909 85.7799 26.9961 85.9883 26.5664C86.2031 26.1302 86.5156 25.7656 86.9258 25.4727C87.3424 25.1797 87.8503 24.9583 88.4492 24.8086C89.0482 24.6523 89.7318 24.5742 90.5 24.5742H92.3457ZM103.273 28.8125V16H105.637V31H103.498L103.273 28.8125ZM96.3984 25.834V25.6289C96.3984 24.8281 96.4928 24.099 96.6816 23.4414C96.8704 22.7773 97.1439 22.2077 97.502 21.7324C97.86 21.2507 98.2962 20.8828 98.8105 20.6289C99.3249 20.3685 99.9043 20.2383 100.549 20.2383C101.187 20.2383 101.747 20.362 102.229 20.6094C102.71 20.8568 103.12 21.2116 103.459 21.6738C103.798 22.1296 104.068 22.6764 104.27 23.3145C104.471 23.946 104.615 24.6491 104.699 25.4238V26.0781C104.615 26.8333 104.471 27.5234 104.27 28.1484C104.068 28.7734 103.798 29.3138 103.459 29.7695C103.12 30.2253 102.707 30.5768 102.219 30.8242C101.737 31.0716 101.174 31.1953 100.529 31.1953C99.8913 31.1953 99.3151 31.0618 98.8008 30.7949C98.293 30.528 97.86 30.1536 97.502 29.6719C97.1439 29.1901 96.8704 28.6237 96.6816 27.9727C96.4928 27.3151 96.3984 26.6022 96.3984 25.834ZM98.752 25.6289V25.834C98.752 26.3158 98.7943 26.765 98.8789 27.1816C98.9701 27.5983 99.11 27.9661 99.2988 28.2852C99.4876 28.5977 99.7318 28.8451 100.031 29.0273C100.337 29.2031 100.702 29.291 101.125 29.291C101.659 29.291 102.098 29.1738 102.443 28.9395C102.788 28.7051 103.059 28.3893 103.254 27.9922C103.456 27.5885 103.592 27.1393 103.664 26.6445V24.877C103.625 24.4928 103.544 24.1348 103.42 23.8027C103.303 23.4707 103.143 23.181 102.941 22.9336C102.74 22.6797 102.489 22.4844 102.189 22.3477C101.896 22.2044 101.548 22.1328 101.145 22.1328C100.715 22.1328 100.35 22.224 100.051 22.4062C99.7513 22.5885 99.5039 22.8392 99.3086 23.1582C99.1198 23.4772 98.9798 23.8483 98.8887 24.2715C98.7975 24.6947 98.752 25.1471 98.752 25.6289ZM113.312 16.7812H118.342C119.423 16.7812 120.344 16.944 121.105 17.2695C121.867 17.5951 122.45 18.0768 122.854 18.7148C123.264 19.3464 123.469 20.1276 123.469 21.0586C123.469 21.7682 123.339 22.3932 123.078 22.9336C122.818 23.474 122.45 23.9297 121.975 24.3008C121.499 24.6654 120.933 24.9486 120.275 25.1504L119.533 25.5117H115.012L114.992 23.5684H118.381C118.967 23.5684 119.455 23.4642 119.846 23.2559C120.236 23.0475 120.529 22.7643 120.725 22.4062C120.926 22.0417 121.027 21.6315 121.027 21.1758C121.027 20.681 120.93 20.2513 120.734 19.8867C120.546 19.5156 120.253 19.2324 119.855 19.0371C119.458 18.8353 118.954 18.7344 118.342 18.7344H115.764V31H113.312V16.7812ZM121.428 31L118.088 24.6133L120.656 24.6035L124.045 30.873V31H121.428ZM130.334 31.1953C129.553 31.1953 128.846 31.0684 128.215 30.8145C127.59 30.554 127.056 30.1927 126.613 29.7305C126.177 29.2682 125.842 28.7246 125.607 28.0996C125.373 27.4746 125.256 26.8008 125.256 26.0781V25.6875C125.256 24.8607 125.376 24.112 125.617 23.4414C125.858 22.7708 126.193 22.1979 126.623 21.7227C127.053 21.2409 127.561 20.873 128.146 20.6191C128.732 20.3652 129.367 20.2383 130.051 20.2383C130.806 20.2383 131.467 20.3652 132.033 20.6191C132.6 20.873 133.068 21.2311 133.439 21.6934C133.817 22.1491 134.097 22.6927 134.279 23.3242C134.468 23.9557 134.562 24.6523 134.562 25.4141V26.4199H126.398V24.7305H132.238V24.5449C132.225 24.1217 132.141 23.7246 131.984 23.3535C131.835 22.9824 131.604 22.6829 131.291 22.4551C130.979 22.2272 130.562 22.1133 130.041 22.1133C129.65 22.1133 129.302 22.1979 128.996 22.3672C128.697 22.5299 128.446 22.7676 128.244 23.0801C128.042 23.3926 127.886 23.7702 127.775 24.2129C127.671 24.6491 127.619 25.1406 127.619 25.6875V26.0781C127.619 26.5404 127.681 26.9701 127.805 27.3672C127.935 27.7578 128.124 28.0996 128.371 28.3926C128.618 28.6855 128.918 28.9167 129.27 29.0859C129.621 29.2487 130.021 29.3301 130.471 29.3301C131.037 29.3301 131.542 29.2161 131.984 28.9883C132.427 28.7604 132.811 28.4382 133.137 28.0215L134.377 29.2227C134.149 29.5547 133.853 29.8737 133.488 30.1797C133.124 30.4792 132.678 30.7233 132.15 30.9121C131.63 31.1009 131.024 31.1953 130.334 31.1953ZM138.762 22.4648V35.0625H136.408V20.4336H138.576L138.762 22.4648ZM145.646 25.6191V25.8242C145.646 26.5924 145.555 27.3053 145.373 27.9629C145.197 28.6139 144.934 29.1836 144.582 29.6719C144.237 30.1536 143.811 30.528 143.303 30.7949C142.795 31.0618 142.209 31.1953 141.545 31.1953C140.887 31.1953 140.311 31.0749 139.816 30.834C139.328 30.5866 138.915 30.2383 138.576 29.7891C138.238 29.3398 137.964 28.8125 137.756 28.207C137.554 27.5951 137.411 26.9245 137.326 26.1953V25.4043C137.411 24.6296 137.554 23.9264 137.756 23.2949C137.964 22.6634 138.238 22.1198 138.576 21.6641C138.915 21.2083 139.328 20.8568 139.816 20.6094C140.305 20.362 140.874 20.2383 141.525 20.2383C142.189 20.2383 142.779 20.3685 143.293 20.6289C143.807 20.8828 144.24 21.2474 144.592 21.7227C144.943 22.1914 145.207 22.7578 145.383 23.4219C145.559 24.0794 145.646 24.8118 145.646 25.6191ZM143.293 25.8242V25.6191C143.293 25.1309 143.247 24.6784 143.156 24.2617C143.065 23.8385 142.922 23.4674 142.727 23.1484C142.531 22.8294 142.281 22.582 141.975 22.4062C141.675 22.224 141.314 22.1328 140.891 22.1328C140.474 22.1328 140.116 22.2044 139.816 22.3477C139.517 22.4844 139.266 22.6764 139.064 22.9238C138.863 23.1712 138.706 23.4609 138.596 23.793C138.485 24.1185 138.407 24.4733 138.361 24.8574V26.752C138.439 27.2207 138.573 27.6504 138.762 28.041C138.951 28.4316 139.217 28.7441 139.562 28.9785C139.914 29.2064 140.363 29.3203 140.91 29.3203C141.333 29.3203 141.695 29.2292 141.994 29.0469C142.294 28.8646 142.538 28.6139 142.727 28.2949C142.922 27.9694 143.065 27.5951 143.156 27.1719C143.247 26.7487 143.293 26.2995 143.293 25.8242ZM147.199 25.834V25.6094C147.199 24.8477 147.31 24.1413 147.531 23.4902C147.753 22.8327 148.072 22.263 148.488 21.7812C148.911 21.293 149.426 20.9154 150.031 20.6484C150.643 20.375 151.333 20.2383 152.102 20.2383C152.876 20.2383 153.566 20.375 154.172 20.6484C154.784 20.9154 155.301 21.293 155.725 21.7812C156.148 22.263 156.47 22.8327 156.691 23.4902C156.913 24.1413 157.023 24.8477 157.023 25.6094V25.834C157.023 26.5957 156.913 27.3021 156.691 27.9531C156.47 28.6042 156.148 29.1738 155.725 29.6621C155.301 30.1439 154.787 30.5215 154.182 30.7949C153.576 31.0618 152.889 31.1953 152.121 31.1953C151.346 31.1953 150.653 31.0618 150.041 30.7949C149.436 30.5215 148.921 30.1439 148.498 29.6621C148.075 29.1738 147.753 28.6042 147.531 27.9531C147.31 27.3021 147.199 26.5957 147.199 25.834ZM149.553 25.6094V25.834C149.553 26.3092 149.602 26.7585 149.699 27.1816C149.797 27.6048 149.95 27.9759 150.158 28.2949C150.367 28.6139 150.633 28.8646 150.959 29.0469C151.285 29.2292 151.672 29.3203 152.121 29.3203C152.557 29.3203 152.935 29.2292 153.254 29.0469C153.579 28.8646 153.846 28.6139 154.055 28.2949C154.263 27.9759 154.416 27.6048 154.514 27.1816C154.618 26.7585 154.67 26.3092 154.67 25.834V25.6094C154.67 25.1406 154.618 24.6979 154.514 24.2812C154.416 23.8581 154.26 23.4837 154.045 23.1582C153.837 22.8327 153.57 22.5788 153.244 22.3965C152.925 22.2077 152.544 22.1133 152.102 22.1133C151.659 22.1133 151.275 22.2077 150.949 22.3965C150.63 22.5788 150.367 22.8327 150.158 23.1582C149.95 23.4837 149.797 23.8581 149.699 24.2812C149.602 24.6979 149.553 25.1406 149.553 25.6094ZM161.359 22.4453V31H159.006V20.4336H161.252L161.359 22.4453ZM164.592 20.3652L164.572 22.5527C164.429 22.5267 164.273 22.5072 164.104 22.4941C163.941 22.4811 163.778 22.4746 163.615 22.4746C163.212 22.4746 162.857 22.5332 162.551 22.6504C162.245 22.7611 161.988 22.9238 161.779 23.1387C161.577 23.347 161.421 23.6009 161.311 23.9004C161.2 24.1999 161.135 24.5352 161.115 24.9062L160.578 24.9453C160.578 24.2812 160.643 23.666 160.773 23.0996C160.904 22.5332 161.099 22.0352 161.359 21.6055C161.626 21.1758 161.958 20.8405 162.355 20.5996C162.759 20.3587 163.225 20.2383 163.752 20.2383C163.895 20.2383 164.048 20.2513 164.211 20.2773C164.38 20.3034 164.507 20.3327 164.592 20.3652ZM171.398 20.4336V22.1523H165.441V20.4336H171.398ZM167.16 17.8457H169.514V28.0801C169.514 28.4056 169.559 28.6562 169.65 28.832C169.748 29.0013 169.882 29.1152 170.051 29.1738C170.22 29.2324 170.419 29.2617 170.646 29.2617C170.809 29.2617 170.965 29.252 171.115 29.2324C171.265 29.2129 171.385 29.1934 171.477 29.1738L171.486 30.9707C171.291 31.0293 171.063 31.0814 170.803 31.127C170.549 31.1725 170.256 31.1953 169.924 31.1953C169.383 31.1953 168.905 31.1009 168.488 30.9121C168.072 30.7168 167.746 30.401 167.512 29.9648C167.277 29.5286 167.16 28.9492 167.16 28.2266V17.8457Z" fill="white"/>
<path d="M203.784 30.3836C203.583 30.6038 203.298 30.7292 203 30.7292C202.702 30.7292 202.417 30.6038 202.216 30.3836L196.549 24.1857C196.153 23.7526 196.183 23.0806 196.616 22.6846C197.049 22.2887 197.721 22.3187 198.117 22.7518L201.937 26.9299V11.25C201.937 10.6632 202.413 10.1875 203 10.1875C203.587 10.1875 204.062 10.6632 204.062 11.25V26.9299L207.882 22.7518C208.278 22.3187 208.95 22.2887 209.384 22.6846C209.817 23.0806 209.847 23.7526 209.451 24.1857L203.784 30.3836Z" fill="white"/>
<path d="M191.313 28.25C191.313 27.6632 190.837 27.1875 190.25 27.1875C189.663 27.1875 189.188 27.6632 189.188 28.25V28.3278C189.187 30.2652 189.187 31.8268 189.353 33.055C189.524 34.3302 189.891 35.4037 190.743 36.2564C191.596 37.1093 192.67 37.476 193.945 37.6475C195.173 37.8125 196.735 37.8125 198.672 37.8125H207.328C209.265 37.8125 210.827 37.8125 212.055 37.6475C213.33 37.476 214.404 37.1093 215.257 36.2564C216.109 35.4037 216.476 34.3302 216.647 33.055C216.812 31.8268 216.812 30.2652 216.812 28.3278V28.25C216.812 27.6632 216.337 27.1875 215.75 27.1875C215.163 27.1875 214.688 27.6632 214.688 28.25C214.688 30.2835 214.685 31.7017 214.541 32.7719C214.402 33.8114 214.146 34.3618 213.754 34.7539C213.362 35.146 212.811 35.4016 211.772 35.5414C210.702 35.6852 209.283 35.6875 207.25 35.6875H198.75C196.717 35.6875 195.298 35.6852 194.228 35.5414C193.189 35.4016 192.638 35.146 192.246 34.7539C191.854 34.3618 191.598 33.8114 191.459 32.7719C191.315 31.7017 191.313 30.2835 191.313 28.25Z" fill="white"/>
</svg>
